<?xml version="1.0" encoding="utf-8"?>
<!-- Generator: Adobe Illustrator 22.0.0, SVG Export Plug-In . SVG Version: 6.00 Build 0)  -->
<svg version="1.1" xmlns="http://www.w3.org/2000/svg" xmlns:xlink="http://www.w3.org/1999/xlink" x="0px" y="0px"
	 viewBox="0 0 1209 1701.4" style="enable-background:new 0 0 1209 1701.4;" xml:space="preserve">
<style type="text/css">
	.st0{fill:#E8EAF2;}
	.st1{fill:#65617D;}
	.st2{opacity:0.8;fill:#FA5959;enable-background:new    ;}
	.st3{opacity:0.8;fill:#FED253;enable-background:new    ;}
	.st4{opacity:0.8;fill:#8CCF4D;enable-background:new    ;}
	.st5{opacity:0.5;}
	.st6{fill:#6C63FF;}
	.st7{fill:#E0E0E0;}
	.st8{fill:#9B9B9B;stroke:#0699CC;stroke-width:6;stroke-miterlimit:10;}
	.st9{stroke:#FFFFFF;stroke-miterlimit:10;}
	.st10{fill:#0699CC;}
	.st11{fill:#33B8F3;}
	.st12{fill:none;}
	.st13{fill:#9B9B9B;stroke:#9B9B9B;stroke-width:2;stroke-miterlimit:10;}
	.st14{font-family:'ArialRoundedMTBold';}
	.st15{font-size:46px;}
	.st16{fill:#575A89;}
	.st17{fill:#F4B3B3;}
	.st18{fill:#504F60;}
	.st19{fill:#9C9CA1;}
	.st20{fill:#AE6E79;}
	.st21{fill:#F2B1B1;}
	.st22{fill:#FFB9B9;}
	.st23{opacity:0.1;enable-background:new    ;}
	.st24{fill:#2F2E41;}
	.st25{fill:#535461;}
	.st26{fill:#DB8B8B;}
	.st27{fill:#ABB1D1;}
	.st28{opacity:5.000000e-02;enable-background:new    ;}
	.st29{fill:none;stroke:#C1272D;stroke-miterlimit:10;}
	.st30{stroke:#FFFFFF;stroke-width:0.5;stroke-miterlimit:10;}
</style>
<g id="Layer_3">
	<path class="st0" d="M966.9,879.2V1484c0,18-17.3,32.6-38.8,32.6H107.5c-21.4,0-38.8-14.6-38.8-32.6V879.2
		c0-18,17.4-36.4,38.8-36.4l820.6,2C949.5,844.8,966.9,861.1,966.9,879.2z"/>
	<path class="st1" d="M966.9,879.3v28H68.7v-28c0-20.2,16.4-36.6,36.6-36.6l0,0h825C950.5,842.8,966.9,859.1,966.9,879.3
		C966.9,879.3,966.9,879.3,966.9,879.3z"/>
	<circle class="st2" cx="112.2" cy="875.1" r="12.9"/>
	<circle class="st3" cx="149.8" cy="875.1" r="12.9"/>
	<circle class="st4" cx="187.4" cy="875.1" r="12.9"/>
</g>
<g id="Layer_6">
	<g class="st5">
		<path class="st6" d="M249,1037.6h109c10.2,0,18.5,7.2,18.5,16.1v82c0,8.9-8.3,16.1-18.5,16.1H249c-10.2,0-18.5-7.2-18.5-16.1v-82
			C230.5,1044.8,238.8,1037.6,249,1037.6z"/>
	</g>
	<path class="st7" d="M427.6,1037.6h379.8c4,0,7.3,2.8,7.3,6.3l0,0c0,3.5-3.3,6.3-7.3,6.3H427.6c-4,0-7.3-2.8-7.3-6.3l0,0
		C420.3,1040.4,423.6,1037.6,427.6,1037.6z"/>
	<path class="st7" d="M427.6,1075.7h313.2c4,0,7.3,2.8,7.3,6.3l0,0c0,3.5-3.3,6.3-7.3,6.3H427.6c-4,0-7.3-2.8-7.3-6.3l0,0
		C420.3,1078.5,423.6,1075.7,427.6,1075.7z"/>
	<g class="st5">
		<path class="st6" d="M249,1215.3h109c10.2,0,18.5,7.2,18.5,16.1v82c0,8.9-8.3,16.1-18.5,16.1H249c-10.2,0-18.5-7.2-18.5-16.1v-82
			C230.5,1222.6,238.8,1215.3,249,1215.3z"/>
	</g>
	<path class="st7" d="M427.6,1215.3h379.8c4,0,7.3,2.8,7.3,6.3v0c0,3.5-3.3,6.3-7.3,6.3H427.6c-4,0-7.3-2.8-7.3-6.3v0
		C420.3,1218.2,423.6,1215.3,427.6,1215.3z"/>
	<path class="st7" d="M427.6,1253.4h379.8c4,0,7.3,2.8,7.3,6.3l0,0c0,3.5-3.3,6.3-7.3,6.3H427.6c-4,0-7.3-2.8-7.3-6.3l0,0
		C420.3,1256.3,423.6,1253.4,427.6,1253.4z"/>
	<g class="st5">
		<path class="st6" d="M249,1393.1h109c10.2,0,18.5,7.2,18.5,16.1v82c0,8.9-8.3,16.1-18.5,16.1H249c-10.2,0-18.5-7.2-18.5-16.1v-82
			C230.5,1400.3,238.8,1393.1,249,1393.1z"/>
	</g>
	<path class="st7" d="M427.6,1393.1h379.8c4,0,7.3,2.8,7.3,6.3v0c0,3.5-3.3,6.3-7.3,6.3H427.6c-4,0-7.3-2.8-7.3-6.3v0
		C420.3,1396,423.6,1393.1,427.6,1393.1z"/>
	<path class="st7" d="M426.9,1431.2h383.9c3.6,0,6.6,2.6,6.6,5.7v1.3c0,3.1-2.9,5.7-6.6,5.7H426.9c-3.6,0-6.6-2.6-6.6-5.7v-1.3
		C420.3,1433.8,423.3,1431.2,426.9,1431.2z"/>
</g>
<g id="Layer_5">
	<circle class="st8" cx="157.9" cy="982.8" r="54.8"/>
	<g>
		<path class="st9" d="M132.2,964.5c0.4-0.3,0.7-0.7,1.2-0.9c0.7-0.4,1.4-0.4,2,0.2c0.4,0.4,0.6,1.2,1.2,1.2c0.2,0,0.4-0.1,0.6-0.2
			c1-2.6,2-5.3,3-7.9c3.4-9.1,11.6-14.9,19.8-14.1c9.8,1,16.1,11.5,13.7,22.7c-0.3,1.3-0.7,2.5-1.1,3.7c-1.4,3.8-2.8,7.5-4.2,11.3
			c0.1,0,0.2,0,0.3,0c0.4,0,0.7,0.2,0.9,0.4c0.2,0.2,0.4,0.5,0.6,0.7c0.2,0.2,0.5,0.1,0.8,0.1c0.6,0,1.3,0,1.7,0.5
			c0.1,0.1,0.2,0.3,0.3,0.5c0.1-0.1,0.1-0.1,0.2-0.2c0.2-0.1,0.4-0.2,0.6-0.3c1.4-3.7,2.8-7.5,4.2-11.2c2.2-6,2.6-12,1.2-17.8
			c-2.6-10.4-10.8-17.3-20.3-17.1c-10.5,0.3-19.9,7.7-24.2,19.2c-0.9,2.4-1.8,4.8-2.7,7.2C132.2,963.1,132.1,963.8,132.2,964.5z"/>
		<path class="st9" d="M175.8,973.6C175.8,973.6,175.8,973.6,175.8,973.6c-0.2,0.4-0.7,0.5-1,0.2c-0.5-0.4-0.7-0.7-1.3-0.3
			c-0.6,0.5-1,0.9-1.9,0.8c-0.4,0-0.8-0.3-1.1,0.1c-0.1,0.2-0.2,0.3-0.4,0.5c1.9,5.4,3.7,10.8,5.6,16.2c1.8-0.6,3.6-1.2,5.4-1.9
			C179.4,984.1,177.6,978.8,175.8,973.6z"/>
		<path class="st9" d="M136.3,982.8c-0.2,0.2-0.4,0.3-0.6,0.4c-0.6,0.2-1.2,0.1-1.8-0.1c-0.3-0.1-0.5-0.2-0.7,0.2
			c-0.1,0.3-0.2,0.6-0.2,0.8c-0.1,0.6-0.2,1.2-0.6,1.7c-0.2,0.3-0.7,0.3-0.9,0.1c-0.1-0.1-0.2-0.2-0.3-0.3c3,8.8,6.1,17.5,9.1,26.3
			c1.8-0.6,3.6-1.2,5.4-1.9C142.5,1000.9,139.4,991.8,136.3,982.8z"/>
		<path class="st10" d="M166.1,1022.1c-0.3,0.1-0.5,0.1-0.8,0.2c-7.2,2.5-14.5,5-21.7,7.5c-0.5,0.2-0.8,0.1-1.2-0.4
			c-2.6-3.3-4.2-7.1-5-11.2c3.1-1.1,6.1-2.1,9.2-3.2c14.5-5,29.1-10.1,43.6-15.1c2,3.9,3,8,3,12.3c0,0.6-0.3,0.6-0.7,0.7
			c-7.2,2.5-14.5,5-21.7,7.5c-0.2,0.1-0.5,0.2-0.7,0.3C168.7,1021.1,167.4,1021.6,166.1,1022.1z"/>
		<path class="st11" d="M190.2,999.9c-14.5,5-29.1,10.1-43.6,15.1c-3.1,1.1-6.1,2.1-9.2,3.2c-0.4-1.7-0.5-3.4-0.5-5.1
			c0-0.4,0.2-0.5,0.5-0.6c1-0.3,1.9-0.7,2.9-1c1.8-0.6,3.6-1.2,5.4-1.9c0.3-0.1,0.6-0.2,0.9-0.3c9.8-3.4,19.5-6.8,29.3-10.1
			c0.2-0.1,0.5-0.2,0.8-0.2c3-1,6-2.1,9-3.1c1.9-0.7,1.4-1,2.8,0.9C189.1,997.8,189.7,998.8,190.2,999.9z"/>
		<path class="st10" d="M185.6,995.9c-3,1-6,2.1-9,3.1c-0.6-1.7-1.1-3.4-1.7-5.1c-0.6-1.6-0.4-2.3,0.9-3.1c1.8-0.6,3.6-1.2,5.4-1.9
			c1.4-0.1,2,0.3,2.5,1.8C184.3,992.4,184.9,994.2,185.6,995.9z"/>
	</g>
	<g class="st5">
	</g>
	<g>
		<rect x="230.5" y="965.6" class="st12" width="397.8" height="72"/>
		<text transform="matrix(1 0 0 1 230.4647 999.0558)" class="st13 st14 st15">BROKEN U-LOCK</text>
	</g>
</g>
<g id="Layer_4">
	<circle class="st16" cx="944.8" cy="1355.8" r="28.6"/>
	<path class="st17" d="M938.6,1312.7c2.9,12.5,5.3,25,7.3,37.6c0.6,3.8,1.1,7.7-0.2,11.3c-1.1,3-3.5,5.3-5.3,7.9s-3.2,5.9-2.1,8.9
		s4.3,4.6,7.4,5.4c8.8,2.4,18.2,0.6,27-1.9c4-1,7.8-2.6,11.3-4.7c3.7-2.4,6.8-5.6,9.6-9c12.8-15.5,21.2-34.2,29.1-52.7
		c-10.3,0.9-20.4-3.1-27.2-10.9c-3.2-3.8-5.6-9.1-3.8-13.7c-5.3,2.9-11.7,3.1-17.4,5.1c-3.6,1.4-7,3-10.3,5
		c-3.9,2.3-7.8,4.6-11.7,6.9C947.9,1310.6,943.7,1312.9,938.6,1312.7z"/>
	<path class="st16" d="M996.6,1340.1c-5,9.7-11.5,19.1-20.8,24.9c-9.3,5.8-21.8,7.4-31.2,1.6c-4.6-2.8-8.1-7.1-12.1-10.7
		c-4-3.6-9-6.7-14.4-6.2c-5.9,0.5-10.6,5.1-14.6,9.6c-6,6.7-11.9,13.8-16.1,21.7c-8.2,15.3-10.1,33.3-9.8,50.6
		c0.4,17.4,2.9,34.7,2.9,52.1c0.1,21.4-3.5,42.6-7.2,63.7c33.7-4.1,67.4,4.9,101.2,8.4c21.6,2.2,43.4,2.2,65.1,2.1
		c3.8,0,7.9-0.1,11.1-2.2c1.9-1.4,3.5-3.3,4.6-5.4c3-5.5,4.2-11.8,5-18.1c2.1-15.8,2.2-31.7,2.2-47.6c0.1-38.5,0.3-77.2-4.6-115.5
		c-1.2-9.4-2.7-18.9-6.4-27.7c-3.6-8.8-9.5-16.9-17.7-21.6c-5.3-3-17.5-8.3-23.8-5.3C1003.2,1318.1,1000,1333.6,996.6,1340.1z"/>
	<path class="st16" d="M1012.5,1456.5c-1.3-23.8-6.4-49.2,4.6-70.3c2.7-5.2-7-11.7-4-16.7c3.7-6.1,6.4-12.7,8.2-19.6
		c0.6-2.4,1.1-4.9,0.5-7.3c-1.1-4.3-5.4-6.9-9-9.6c-4-2.9-6.1-11.8-7.4-16.6c-1.3-4.8,10.3,1,15-0.7c6.5-2.4,14.7-0.9,21.2,1.5
		c3.6,1.3,7.5,1.4,11.4,1.5c7.5,0.2,15,0.4,22.4-0.5c3.3-0.4,6.7-1,10-0.9c8.5,0.5,16,6.3,21,13.2c5.1,6.9,8.3,14.9,12.4,22.4
		c3.5,6.2,7.6,12.1,10.5,18.6c2.6,5.7,4.3,11.9,5.9,18l4.2,15.7c0.7,2.3,1.1,4.6,1,7c-0.2,2.5-1.3,4.9-2.5,7.1
		c-4.3,8.3-9.4,16.1-15.3,23.4c-8.8,10.8-19.6,20.6-24.8,33.6c-2,5.1-3.2,10.4-4.2,15.8c-4.2,21.4-7.2,43.1-8.9,64.9
		c-9.6-4.4-19.6-7.8-29.9-10c-5.1-1.1-10.3-1.9-15.6-2.5c-4.6-0.5-10.5,0.4-14.9-0.8c-7.3-2.1-8.1-14.4-9.2-20.9
		c-1.8-10.3-2.1-20.8-2.2-31.2C1012.8,1480.1,1013.1,1468.3,1012.5,1456.5z"/>
	<path class="st16" d="M845.4,1405.3c3.5,19.7,7.3,39.4,14.8,57.9c-0.2,0.2-0.4,0.3-0.6,0.5c-0.7,0.6-1.4,1.1-2.1,1.6
		c-1.7,1.2-3.5,2.2-4.9,3.7c-0.5,0.6-0.9,1.3-1.2,2c-0.5,1.2-0.5,2.5,0,3.7c-3.9,1.7-8.5,1.2-12.8,1c-3.8-0.1-7.4,0-10.5,2.1
		c-4.2,2.9-5.5,8.5-6.2,13.5c-0.3,1.8-0.5,3.7-0.6,5.6c-0.2,1.7-0.3,3.4-0.4,5.2c-0.4,5.7-0.4,11.5-0.2,17.2c0,1,0.1,2.1,0.2,3.1
		c-13.4-0.3-25.6-7.3-37.2-14.1c-2.6-1.5-5.4-3.2-7.1-5.7c-1.6-2.5-2.2-5.5-1.9-8.4c0-0.4,0.1-0.8,0.1-1.2c0.4-2.4,1-4.8,1.9-7.1
		c3.6-9.8,8.9-18.9,15.7-26.8c2.9-3.4,6.2-6.8,7.6-11.1c0.6-1.9,0.8-3.9,1.4-5.7c2.7-8.1,12.5-11.9,15.9-19.8
		c0.8-1.9,1.2-3.9,2.2-5.7c0.9-1.5,2.1-2.8,3.5-3.9c0.6-0.5,1.2-1,1.8-1.5c5.8-4.5,11.3-9.3,16.7-14.3c1-0.9,2-1.9,3-2.8
		C844.4,1397.9,844.7,1401.6,845.4,1405.3z"/>
	<path class="st16" d="M928,1347.1c-1.2,1.2-2.5,2.4-3.7,3.6l-0.3,0.3l-1.3,1.2c-2.4,2.1-4.5,4.5-6.2,7.2l-0.1,0.2
		c-4.2,7.5-2.6,16.7-1.5,25.2c1.4,10.6,2.1,21.3,1.9,32c-0.2,14.8-2,29.4-2,44.2c0,3.3,0.1,6.7,0.2,10c0.2,5.4,0.6,10.9,1.1,16.3
		c0.5,6,1.2,11.9,1.8,17.8c0.5,4.6,0.9,9.2,1.3,13.8c0.2,2.4,0.4,4.7,0.5,7.1c0.2,2.8,0.3,5.6,0.4,8.4l0,0c0.1,1.8,0.1,3.5,0.1,5.3
		c0,1,0,2,0,3c0,1.9-0.1,3.8-0.2,5.7c-0.1,2.5-0.3,4.9-0.5,7.4c-0.3,2.7-0.7,5.6-2.6,7.5c-0.1,0.1-0.2,0.2-0.4,0.3l-2.7-0.3
		c-18.3-2.2-36.8-2.5-55.2-1c0.4-2.8,0.8-5.5,1.1-8.3c0.2-1.3,0.3-2.6,0.5-4c0.2-1.5,0.4-3,0.5-4.5c0.2-1.6,0.4-3.3,0.5-4.9
		c0.4-4.2,0.8-8.5,1.1-12.7c0.5-6.2,0.8-12.4,1.1-18.5c0.1-3,0.2-5.9,0.3-8.9c0.1-3.7,0.1-7.3,0.1-11c0-3.6,0-7.2-0.1-10.7
		c0-1.2,0-2.4-0.1-3.5c-0.1-1.1-0.2-2.1-0.4-3.1c-0.6-2.4-1.4-4.7-2.5-7c-0.2-0.4-0.4-0.8-0.5-1.3c-0.1-0.2-0.2-0.5-0.3-0.7
		c4.7-4.2,8.1-9.8,11.3-15.4c5.2-8.9,10.6-18.3,11.5-28.6c0.9-10.3-4.2-21.9-14.1-25.1c-2.7-0.8-5.5-1-8.3-1.5
		c-2.6-0.5-8-1.5-11.1-3.4c-1.6,1.7-3.3,3.3-4.9,5c0.1-2.5,0.7-4.9,1.8-7.1l1.2,0.1c-0.1-0.3-0.1-0.5-0.1-0.8c0-0.9,0.6-1.9,1.9-3
		c3.9-3.3,9.9-4,12.4-8.4c1-1.8,1.2-4,2-6c2.4-5.5,9.1-7.6,13.2-12c4.1-4.4,5.1-10.7,8.4-15.6c2.5-3.6,5.9-6.4,9.8-8.2
		c0.3-0.2,0.7-0.3,1-0.5c6.8-2.9,14.9-3.6,21.9-3.6c2.7,0,9.8,0.1,13.3,1.5c0.6,0.2,1.1,0.5,1.5,0.9
		C936.5,1335.6,930.8,1344.1,928,1347.1z"/>
	<path class="st16" d="M846.6,1386.5c12.8-3.9,26.6-2.4,38.3,4c5.9,3.3,11.2,7.9,14.4,13.8c4.9,8.9,4.7,19.5,4.3,29.6
		c-0.2,5.1-0.4,10.3-2.6,14.8c-2.6,5.3-7.5,8.9-12.4,11.8c-3.1,2-6.5,3.5-10.1,4.4c-5.5,1.2-11.2,0.2-16.8-0.8
		c-6-1.1-12.5-2.5-16.7-7c-2.5-2.6-3.8-6-5.1-9.3c-1.9-4.8-3.8-9.6-5.7-14.3c-3.3-8.3-4.4-15.2-0.1-23.3c2-3.7,4.4-7.1,6.4-10.8
		C841.5,1397.6,845,1387,846.6,1386.5z"/>
	<path class="st18" d="M1191.2,1528.3v24.5c-16.8,7-34.9,10.6-53.1,10.5H917c-0.1,0.1-0.2,0.2-0.4,0.3l-2.7-0.3H520.6
		c-33,0-63.6-8.9-88.7-24.1v-37.4l189.2-21.8h0.1l110.2,9.3l28.5,2.5l14.8,1.3l30.7,2.6l15.8,1.3l23,2l3.2,0.3l16.5,1.4l22.5,1.8
		l31.6,2.7l52.6,4.5l37,3.1l60.8,5.2l11.6,1l1.2,0.1l1.1,0.1l15.3,1.3l16.8,1.4l1.9,0.2L1191.2,1528.3z"/>
	<polygon class="st19" points="969,1527.4 731.9,1486.9 722.7,1533.4 831.4,1546.4 864.9,1550.6 956.9,1532.5 	"/>
	<path class="st19" d="M846.3,1548.3l118.8-22.3c2.2-0.4,4.4,1,4.8,3.3c0,0.3,0.1,0.5,0.1,0.8l0,0c0,2-1.4,3.7-3.4,4l-116,21.7
		L846.3,1548.3z"/>
	<path class="st20" d="M897.8,1478.1c3.7-0.3,7.4-0.9,10.8-2.6c4.1-2,7.3-5.6,11.1-8.2c8.3-5.7,19.5-6.5,29.1-3.2
		c9.6,3.3,17.6,10.4,23.1,18.8c3.7,5.6,6.5,12.8,3.9,19c-0.9,1.9-2,3.7-3.4,5.3l-6.8,8.9c-1.3,1.9-2.9,3.6-4.6,5
		c-2.6,1.9-5.7,2.6-8.9,3.1c-8.3,1.2-16.8,0.5-25.2,1.1c-14.4,1-28.5,5.6-42.9,5.4c-8.3-0.1-16.5-1.8-24.6-3.4l-35.9-7.4
		c-6.2-1.3-13.3-3.1-16.3-8.8c-1.3-2.6-1.6-5.5-1.7-8.4c-0.4-7.9,0-16.7,5.5-22.4c5.1-5.3,13.3-7,19.4-11c7.5-4.8,10-3.3,17.9,0.4
		C863.9,1476.7,880.9,1479.6,897.8,1478.1z"/>
	<path class="st21" d="M897.8,1478.1c3.7-0.3,7.4-0.9,10.8-2.6c4.1-2,7.3-5.6,11.1-8.2c8.3-5.7,19.5-6.5,29.1-3.2
		c9.6,3.3,17.6,10.4,23.1,18.8c3.7,5.6,6.5,12.8,3.9,19c-0.9,1.9-2,3.7-3.4,5.3l-6.8,8.9c-1.3,1.9-2.9,3.6-4.6,5
		c-2.6,1.9-5.7,2.6-8.9,3.1c-8.3,1.2-16.8,0.5-25.2,1.1c-14.4,1-28.5,5.6-42.9,5.4c-8.3-0.1-16.5-1.8-24.6-3.4l-35.9-7.4
		c-6.2-1.3-13.3-3.1-16.3-8.8c-1.3-2.6-1.6-5.5-1.7-8.4c-0.4-7.9,0-16.7,5.5-22.4c5.1-5.3,13.3-7,19.4-11c7.5-4.8,10-3.3,17.9,0.4
		C863.9,1476.7,880.9,1479.6,897.8,1478.1z"/>
	<path class="st22" d="M1042,1466.8c-10.1,3.9-20.2,7.8-30.7,10.1c-17.7,3.9-36.2,3.3-53.7,7.7c-9.3,2.4-18.5,6.2-28,5.4
		c-4.3-0.3-8.4-1.6-12.5-2.6c-23.3-5.7-49.7-3.9-68.6,10.9c-6.5,5-11.8,11.3-16.5,18c-3.8,5.4-2.6,13,2.9,16.8
		c0.6,0.4,1.3,0.8,2,1.1c7.3,3.4,15.2,5.5,23.3,6.2c10.8,1,21.6-0.6,32.3-2.1c15.9-2.3,31.8-4.5,47.6-7.1c5.7-0.9,11.4-1.9,17.1-2.6
		c41.2-5.2,83.1,1.1,124.4-3.2c4.2-0.4,8.4-1,12.2-2.8c9.6-4.5,14.4-16.4,12.4-26.8c-2-10.4-9.6-19.1-18.9-24.5
		c-7.7-4.5-16.1-6.3-24.7-8.2C1054.5,1461.4,1049.6,1463.9,1042,1466.8z"/>
	<path class="st23" d="M1130.3,1404.4c4.5,6,5.5,13.9,5,21.4c-0.5,7.5-2.3,14.8-2.5,22.3c-0.4,10.3,2.1,20.5,1.7,30.7
		c-0.3,7.2-2,14.2-4,21c-2.4,8.1-5.8,16.8-13.3,20.7c-9.9,5.2-30.8,2.3-41.2,6.3c1-5.9,10.1-14.5,11-20.4c0.7-4.1,1.3-8.3,0.6-12.4
		c-0.9-5.2-4-9.9-7.6-13.8c-5.8-6.2-13.4-10.8-21.7-12.3c-8.3-1.5-28.7-0.3-35.4,5c-0.8-5.4,14.4-10.7,19.8-11.8
		c2.7-0.6,5.7-0.3,7.9-2c4.1-3.2,1.1-9.6,1.3-14.8c0.2-4.1,2.6-7.9,3-12c0.8-6.6-3.5-13.2-1.8-19.7c0.6-2.4,2-4.5,3-6.7
		c2.9-6.9,1.6-14.8,0.1-22.2c-1-4.6-1.9-9.8,0.7-13.8c2.4-3.7,9.2,9.4,13.5,8.8c14.3-2,27.3-12.6,38.9-3.9c5.9,4.4,6.7,9,9,15.3
		C1120.5,1396.3,1126.5,1399.4,1130.3,1404.4z"/>
	<path class="st16" d="M1132.7,1404.4c4.5,6,5.5,13.9,5,21.4c-0.5,7.5-2.3,14.8-2.5,22.3c-0.4,10.3,2.1,20.5,1.7,30.7
		c-0.3,7.2-2,14.2-4,21c-2.4,8.1-5.8,16.8-13.3,20.7c-9.9,5.2-30.8,2.3-41.2,6.3c1-5.9,10.1-14.5,11-20.4c0.7-4.1,1.3-8.3,0.6-12.4
		c-0.9-5.2-4-9.9-7.6-13.8c-5.8-6.2-13.4-10.8-21.7-12.3s-28.7-0.3-35.4,5c-0.8-5.4,14.4-10.7,19.8-11.8c2.7-0.6,5.7-0.3,7.9-2
		c4.1-3.2,1.1-9.6,1.3-14.8c0.2-4.1,2.6-7.9,3-12c0.8-6.6-3.5-13.2-1.8-19.7c0.6-2.4,2-4.5,3-6.7c2.9-6.9,1.6-14.8,0.1-22.2
		c-1-4.6-1.9-9.8,0.7-13.8c2.4-3.7,7.1-5.1,11.4-5.7c14.5-2,29.2,1.8,41,10.6c5.9,4.4,6.7,9,9,15.3
		C1123,1396.3,1128.9,1399.4,1132.7,1404.4z"/>
	<path class="st19" d="M590.2,1365.5l44.6,164.8c1.1,4.1,4.7,7.1,8.9,7.6l200.7,19.3c5.7,0.5,10.7-3.6,11.2-9.2
		c0.1-1.2,0-2.3-0.3-3.4l-48.8-198.8c-1.2-4.9-5.7-8.2-10.8-7.8l-196.5,14.7c-5.7,0.4-9.9,5.4-9.5,11
		C589.9,1364.3,590,1364.9,590.2,1365.5z"/>
	<path class="st16" d="M974.4,1364.6c0,0-3.1-8.5-3.1-10c0-1.6-13.8-2.6-13.8-2.6s-10.7-5.3-12.9-4.5c-2.2,0.8-36.1,10.8-41.4,12.2
		c-5.3,1.4-11.1,7.3-10.7,7.7c0.4,0.4,28,26,28,26s12,15.7,3.6,24s-19.1,24.6-3.6,27.9s91.3,10.6,105.1,4.3
		c13.8-6.3,23.6-8.1,27.2-8.1c3.6,0-14.7-27.4-10.7-29.9s-1.8-18.5-1.8-18.5l20.5-25.4c0,0-1.8-14.2-42.3-17.3l-24.2-5.2
		L974.4,1364.6z"/>
	<path class="st24" d="M960.1,1243.7c-11.9,23.5-75.9,25.7-75.9,25.7l15.5-10.9l-35,3.5c-1.8-15.7,14-28.1,14-28.1l-16.3,2
		c0.9-15.7,47-22.7,47-22.7l-11.4-9.6c9.6-6.2,52.2,8,52.2,8l2.7-11.3c16.9,5.4,9.7,31,9.7,31L960.1,1243.7z"/>
	<path class="st22" d="M1002.1,1258.8c12.6,28.6,1.3,61-25.1,72.4c-26.4,11.4-58-2.5-70.6-31.1c-0.4-0.9-0.8-1.7-1.1-2.6
		c-11.9-28.9,0.1-60.9,26.9-71.7C958.9,1215.2,990.2,1229.9,1002.1,1258.8z"/>
	<path class="st24" d="M908.6,1216.3c-0.9,1.5-2.1,2.7-3.5,3.5c-1.5,0.8-3.4-0.1-4.2-1.8c-0.1,3.1-1.1,6-2.8,8.2
		c-1.9,2-5.8,1.8-6.9-1.1c0.3,2.4,0,4.7-0.9,6.8c-1,2.1-3.3,2.8-5.2,1.6c2.7,6.1,3.8,12.8,5.9,19.2c2,6.4,5.4,12.9,10.7,16
		c7.8,4.6,16.7,0.6,24.5-2.7c1.1-0.6,2.4-0.9,3.8-0.7c3.4,0.7,4.6,5.6,5.7,9.4c4.2,13.7,16.3,22.7,28.7,21.2c3.4-0.3,6.4-2.1,8.5-5
		c1.7-2.9,1.9-6.9,4.1-9.2c3.6-3.9,9.8-1.2,14.1,2.3s8.8,8.1,13.9,7.6c6.7-0.6,9.6-9.5,10.1-17.1c1.4-21.5-4.9-43.4-17.7-60.8
		C974.9,1183.3,927.5,1190,908.6,1216.3z"/>
</g>
<g id="b68b2dea-431f-4b15-9350-961d32a371b9">
	<title>adventure</title>
	<circle class="st24" cx="200.7" cy="39.9" r="31"/>
	<path class="st22" d="M181.9,47.1c0,0,2.4,25.9-3.2,33.2c-5.7,7.3,3.6,21.5,3.6,21.5l17,20.3l25.1-11.3l3.6-21.1l-2.4-14.6
		c0,0-8.5-8.5-4.9-23.9S181.9,47.1,181.9,47.1z"/>
	<path class="st23" d="M181.9,47.1c0,0,2.4,25.9-3.2,33.2c-5.7,7.3,3.6,21.5,3.6,21.5l17,20.3l25.1-11.3l3.6-21.1l-2.4-14.6
		c0,0-8.5-8.5-4.9-23.9S181.9,47.1,181.9,47.1z"/>
	<polygon class="st22" points="196.5,532.1 196.5,548.7 218.8,553.2 216.7,525.6 	"/>
	<polygon class="st22" points="263.3,525.6 258.5,548.7 268.2,555.6 285.2,543 283.2,523.2 	"/>
	<path class="st24" d="M220.8,551.2c0,0-8.5-14.4-24.3-5.4c0,0-2.8,15.9-5.7,17.1s-18.6,24.3,0,26.3s28-4.1,28-4.1s-3.6,3.1,2,1.5
		s3.2-10.5,3.2-10.5L220.8,551.2z"/>
	<path class="st24" d="M276.3,541.4c0,0-12.6,8.9-14.6,4.9s-5.3-3.6-5.3-3.6s-11.3,42.8-4.1,44.8c4.7,1.2,9.6,0.9,14.2-0.7
		c0,0,9.7-6.8,9.7-1.5s27.1,4.9,38.5,4.5s5.3-8.9,5.3-8.9l-15-14.6l-17-24.7C288.1,541.4,280.4,534.5,276.3,541.4z"/>
	<path class="st24" d="M156.8,270.4l17,163.3c0,0,9.3,99.7,10.9,101.3s12.2,6.9,35.3,0l-5.3-130.5l9.7-81l22.3,55.9
		c0,0,5.3,150.3,8.9,150.3c3.6,0,25.9,7.3,31.2-1.6s4.5-104.9,4.5-104.9s-2.4-151.5-20.3-156.4S156.8,270.4,156.8,270.4z"/>
	<circle class="st22" cx="200.7" cy="45.5" r="28"/>
	<path class="st16" d="M205.4,111.9c0,0-2.8-17.4-2.8-20.7S190,86,190,86s-9.7-10.9-11.8-9.3s-32.8,22.3-37.7,25.1
		s-10.1,15-9.7,15.8s25.5,53.5,25.5,53.5s10.9,32.4,3.2,49.4s-17.4,50.6-3.2,57.5s83.1,21.9,95.6,8.9c12.6-13,21.5-16.6,24.7-16.6
		s-13.4-56.3-9.7-61.6s-1.6-38.1-1.6-38.1l18.6-52.3c0,0-1.6-29.2-38.5-35.7l-22.1-10.7L205.4,111.9z"/>
	<path class="st22" d="M129.6,277.7c0,0-2,19.4-2,25.1s-9.7,38.9,4.5,42.9s13-44.2,13-44.2v-24.7L129.6,277.7z"/>
	<path class="st22" d="M297.8,259.4c0,0,2.4,18.6,1.2,22.7s11.8,39.3-5.7,41.3s-13-42.1-13-42.1v-21.9L297.8,259.4z"/>
	<path class="st16" d="M136.9,112.7l-6.1,4.9c0,0-8.1,128.8-6.1,138.6c2,9.7-7.3,23.5,0.8,24.7s17.8,6.5,22.3,3.2s5.3-15,6.9-17.8
		s4.5-36.5,4.5-36.5s8.5-33.6,3.2-58.8s-10.1-50.6-10.1-50.6L136.9,112.7z"/>
	<path class="st16" d="M265.4,102.6l18.6,15.8l14.2,82.7c0,0,8.9,64.4,2,65.2s-17.4-1.2-21.9,0s-8.1-2-8.1-2s-4.9-25.9-4.9-26.3
		s-3.2-30-3.2-30l-4.1-33.2l6.1-36.5L265.4,102.6z"/>
	<path class="st24" d="M179.2,39.9c0,0-6.3-19.8,2.8-26.3l2.5,8.8c0,0,23.1-16.8,29.1-13l-5.7,9.1c0,0,26.9,0,28.8,12.6l-9.5,0.4
		c0,0,10.1,8,10.4,21L217.5,54l9.8,6.9c0,0-36.7,6.1-45.6-11.4L179.2,39.9z"/>
	<path class="st24" d="M173.8,31.3c0,0,7.3,14.6,17,10.9s0-17,0-17l-6.5-3.2L173.8,31.3z"/>
	<path class="st25" d="M1082.2,569.8l-5.2-81.1l-0.1-0.2l-5.2,1.8l-24.1,70.2l-38.3-27.2l61-44.2l0.1-0.2l0.3-0.1l3.9-2.9l-64-35.9
		L995,467.4l2.5,16.1l73.5,1.3v1.7l-74.9-1.3l-2.8-18.3l21.4-23.6l32.1-37.4l0.6,1.5l6.8-7.5l25.3,4.5v-1l1.7,0v1.3l37.6,6.7
		l-35.1,70.1l-5.1,3.7v0.4v0.5l81-28.2l-9.6,75.5l-68.7-43.8l-2.4-1.4l40.5,65.3L1082.2,569.8z M1078.8,491.7l4.8,75.7l33.2-14.4
		L1078.8,491.7z M1012.1,533.4l34.6,24.5l22.6-66L1012.1,533.4z M1080.3,487.3l1.7,1l66.5,42.4l8.9-70.3L1080.3,487.3z
		 M1074.4,481.4l2.1,3.4l0.4-0.3l2.5-78.3l-24.6-4.4l-6.8,7.5L1074.4,481.4z M1012,449l62,34.8l-1.1-1.8l-26.2-71.4l-30.8,33.9
		L1012,449z M1081,406.5l-2.5,76.8l3.7-2.7l33.9-67.8L1081,406.5z"/>
	<path class="st25" d="M729.2,569.4l-5.2-81.1l-0.1-0.2l-5.2,1.8l-24.1,70.3l-38.3-27.2l61-44.2l0.1-0.2l0.3-0.1l3.9-2.9l-64-35.9
		L642,467.1l2.5,16.1l73.6,1.3v1.7l-74.9-1.3l-2.8-18.3l21.4-23.6l32.1-37.4l0.6,1.5l6.8-7.5l25.2,4.5v-1l1.7,0v1.3l37.6,6.7
		l-35,70.1l-5.1,3.7v0.4v0.5l81-28.2l-9.6,75.5l-68.7-43.8l-2.4-1.4l40.5,65.3L729.2,569.4z M725.9,491.3l4.8,75.7l33.2-14.4
		L725.9,491.3z M659.2,533.1l34.6,24.5l22.6-66L659.2,533.1z M727.4,487l1.7,1l66.5,42.4l8.9-70.3L727.4,487z M721.5,481l2.1,3.4
		l0.4-0.3l2.5-78.3l-24.6-4.4l-6.8,7.5L721.5,481z M659,448.7l62,34.8l-1.1-1.8l-26.2-71.4L663,444.1L659,448.7z M728.1,406.1
		l-2.5,76.8l3.7-2.7l33.9-67.8L728.1,406.1z"/>
	
		<rect x="807.3" y="398" transform="matrix(0.7024 -0.7118 0.7118 0.7024 -58.4099 706.0415)" class="st6" width="15.7" height="49.7"/>
	
		<rect x="807.3" y="398" transform="matrix(0.7024 -0.7118 0.7118 0.7024 -58.4099 706.0415)" class="st25" width="15.7" height="49.7"/>
	<path class="st26" d="M811.4,383.1c0,0,20.5-10.8,28.5-17.8c4.8-4.2,9.9-7.9,15.3-11.2l25.8-15.7l53.8-4.1l2.5,9.1
		c0,0,4.1,13.2-37.3,24.8c-41.4,11.6-62.1,29.8-62.1,29.8S811.4,407.1,811.4,383.1z"/>
	<path class="st23" d="M840.1,396.3c-1.5,1.1-2.2,1.8-2.2,1.8s-26.5,9.1-26.5-14.9c0,0,1.3-0.7,3.3-1.8c4.2,6.8,11.6,10.9,19.5,10.9
		h2.8L840.1,396.3z"/>
	<path class="st22" d="M936.5,348c-2.3,4.9-10.2,12.9-36.5,20.2c-33.6,9.4-53.6,23.2-59.9,28c-1.5,1.1-2.2,1.8-2.2,1.8
		s-26.5,9.1-26.5-14.9c0,0,1.3-0.7,3.3-1.8c6.2-3.4,19.2-10.8,25.1-16c4.8-4.2,9.9-7.9,15.3-11.2l25.8-15.7l9.6-0.7l44.2-3.4
		l2.5,9.1C937.3,343.4,937.8,345.2,936.5,348z"/>
	<path class="st27" d="M811.8,377.7l-21.9,14.5l64.3,53.8c0,0,9.4-5.8,4.5-12.4c0,0-16.6-14.1-17.4-34l-5-6.6h-2.8
		C823.7,393.1,815,386.9,811.8,377.7z"/>
	<path class="st23" d="M936.5,348c-13.2-6.4-45.6-7.1-45.6-7.1l-0.3-3.2l44.2-3.4l2.5,9.1C937.3,343.4,937.8,345.2,936.5,348z"/>
	<path class="st27" d="M890.9,339.2c0,0,38.9,0.8,48.9,9.1l-5-100.2H881L890.9,339.2z"/>
	<path class="st28" d="M890.9,338.8c0,0,38.9,0.8,48.9,9.1l-5-100.2H881L890.9,338.8z"/>
	<path class="st25" d="M1077.9,388.6c-8.8,0-17.5,1.2-26,3.5c-4.4,1.2-8.6,2.7-12.8,4.5c-49.4,21.4-72.1,78.8-50.7,128.2
		s78.8,72.1,128.2,50.7s72.1-78.8,50.7-128.2C1151.9,411.7,1116.8,388.6,1077.9,388.6L1077.9,388.6z M1077.6,559.3
		c-40.6,0-73.6-33-73.6-73.6c0-28.8,16.8-54.9,43-66.9c3.9-1.8,7.9-3.2,12.1-4.3c39.3-10.2,79.5,13.4,89.7,52.7
		c10.2,39.3-13.4,79.5-52.7,89.7C1090,558.5,1083.8,559.3,1077.6,559.3L1077.6,559.3z"/>
	<path class="st25" d="M922.2,277.9c0,0,97.4-3.3,99.4,9.3c2,12.6-97.4,7.3-97.4,7.3S916.2,286.5,922.2,277.9z"/>
	<path class="st28" d="M922.2,277.9c0,0,97.4-3.3,99.4,9.3c2,12.6-97.4,7.3-97.4,7.3S916.2,286.5,922.2,277.9z"/>
	<polygon class="st29" points="857.2,546.3 857.2,546.3 857.2,546.3 857.2,546.3 	"/>
	<rect x="826.1" y="328.3" class="st10" width="17.2" height="149.8"/>
	<path class="st23" d="M843.3,328.3v11.5c-5.7,0.7-11.6,1.2-17.2,1.4v-12.9H843.3z"/>
	<path class="st25" d="M842,315.9c-2.4-0.2-4.8-0.5-7.2-1c-9.3-1.8-32.9-5.5-39.2,0.8c-7.9,7.9-5.3,21.9,15.9,23.9
		c21.2,2,57.7-3.3,65-11.3C876.5,328.3,863.3,317.5,842,315.9z"/>
	<polygon class="st10" points="838.7,369.4 1019.6,313 1025.6,327 840,390.6 	"/>
	<polygon class="st10" points="892.4,458.2 1022.9,329.6 1030.2,340.2 905.6,470.1 	"/>
	<path class="st23" d="M1059.1,414.5c-4.1,1.1-8.2,2.5-12.1,4.3l-7.9-22.1c4.2-1.8,8.4-3.3,12.8-4.5L1059.1,414.5z"/>
	<polygon class="st10" points="1081.2,479.4 1072,484.7 1007.3,303.9 1004.4,295.8 1019.6,287.2 1023.4,299.1 	"/>
	<polygon class="st23" points="1023.4,299.1 1007.3,303.9 1004.4,295.8 1019.6,287.2 	"/>
	<path class="st25" d="M924.8,313l90.8-31.2c0,0,15.9,2,9.9,15.2l-91.5,27.2C934.1,324.3,920.2,325.6,924.8,313z"/>
	<path class="st25" d="M820.1,464.2c-3.3-14.8-10-28.5-19.6-40.2c-3.6-4.3-7.5-8.4-11.7-12.1C748,376.8,686.4,381.3,651.3,422
		s-30.7,102.2,10.1,137.4c40.7,35.2,102.2,30.7,137.4-10.1c11.9-13.8,19.7-30.6,22.5-48.5c0.8-5,1.2-10.1,1.2-15.2
		C822.4,478.5,821.6,471.3,820.1,464.2z M724.7,558.9c-40.6,0-73.5-33-73.4-73.6c0-40.6,33-73.5,73.6-73.4c40.6,0,73.5,33,73.4,73.6
		c0,4.4-0.4,8.8-1.2,13.1C790.6,533.6,760.2,558.9,724.7,558.9z"/>
	<path class="st23" d="M822.4,485.7c0,5.1-0.4,10.2-1.2,15.2c-7.9-0.6-16.2-1.4-24.2-2.2c1.8-9.8,1.6-20-0.7-29.7
		c7.8-1.7,15.8-3.2,23.7-4.7C821.6,471.3,822.4,478.5,822.4,485.7z"/>
	<path class="st23" d="M843.3,460.5v17.6h-17.2v-14.9C832,462.1,837.8,461.2,843.3,460.5z"/>
	<path class="st10" d="M732,485.4c0,0,139.2-36.4,150.4-22.5s23.2,32.5-11.9,39.1c-35.1,6.6-141.2-11.3-141.2-11.3L732,485.4z"/>
	<path class="st23" d="M800.4,424l-17.7,16.2c-3.1-4-6.7-7.7-10.6-11l16.5-17.2C792.9,415.6,796.9,419.7,800.4,424z"/>
	<polygon class="st10" points="727.3,478.1 831.4,369.4 834.7,394.6 732.6,488 	"/>
	<circle class="st23" cx="726" cy="485.4" r="10.6"/>
	
		<ellipse transform="matrix(0.1602 -0.9871 0.9871 0.1602 129.4904 1122.9293)" class="st25" cx="724.7" cy="485.4" rx="10.6" ry="10.6"/>
	<circle class="st23" cx="1076.9" cy="484.4" r="10.6"/>
	<circle class="st25" cx="1077.6" cy="485.7" r="10.6"/>
	<circle class="st23" cx="889" cy="474.8" r="21.2"/>
	<circle class="st25" cx="890.4" cy="474.8" r="21.2"/>
	<path class="st6" d="M884.7,473.2L884.7,473.2c2.5-1.9,6-1.4,7.9,1.1l16.8,22.5c1.9,2.5,1.4,6-1.1,7.9l0,0c-2.5,1.9-6,1.4-7.9-1.1
		l-16.8-22.5C881.7,478.6,882.2,475,884.7,473.2z"/>
	<path class="st26" d="M986.1,180.2l-2,24.9c-0.2,3.2-0.2,6.3,0.1,9.5c0.3,2.8,0,7.7-2.7,15.1c-3.5,9.5-5.3,19.6-5.4,29.7v28.4
		l-19-3.3c0,0,0.8-39.7-2.5-46.4c-3.3-6.6,2.5-65.4,2.5-65.4L986.1,180.2z"/>
	<path class="st22" d="M985.2,192.6l-1,12.6c-0.2,3.2-0.2,6.3,0.1,9.5c0.3,2.8,0,7.7-2.7,15.1c-3.5,9.5-5.3,19.6-5.4,29.7v28.4
		l-19-3.3c0,0,0.8-39.7-2.5-46.4c-2.3-4.7-0.1-35.6,1.4-53.2c0.6-7.2,1.1-12.2,1.1-12.2l29,7.5L985.2,192.6z"/>
	<path class="st22" d="M891.8,370.7l-7.2,40.7c-0.9,5.4-2.3,10.8-4.1,16c-4.2,11.5-1.5,27.6,0.5,36.3c0.9,3.9,1.7,6.3,1.7,6.3
		l-21.5,11.6l-6.6-5v-3.3l-0.8-73.7c-5-11.6-3.3-29,0-35.6c0.9-2.2,1.6-4.5,2-6.8c1.7-8.9,2.2-21.3,2.2-21.3s13.2-22.4,29-7.5
		c5.8,5.5,8,12.7,8.5,19.5C896,359.8,891.8,370.7,891.8,370.7z"/>
	<path class="st23" d="M895.2,348c-11.5,6.8-31.5,8.8-39.6,9.3c1.7-8.9,2.2-21.3,2.2-21.3s13.2-22.4,29-7.5
		C892.6,334,894.8,341.1,895.2,348z"/>
	<path class="st27" d="M923.2,327.6c-8.8,4.7-17.1,10.2-24.8,16.6C885.1,355,852,355.8,852,355.8v-12.4
		c0.8-14.9-13.2-31.5-32.3-77.8c-12.2-29.6-8.8-46.4-4.8-54.7c2.3-4.7,4.8-6.6,4.8-6.6l103.5,19.9l3.7,11.1l7.9,23.7
		c0,0-29,1.7-34,4.1c-5,2.5-1.7,24.8-1.7,24.8C894.2,311.1,923.2,327.6,923.2,327.6z"/>
	<path class="st23" d="M986.1,180.2l-1,12.4c-14.4,4.1-24.7-9-24.7-9c-1.5,0.4-3,0.9-4.4,1.5c0.6-7.2,1.1-12.2,1.1-12.2L986.1,180.2
		z"/>
	<path class="st23" d="M926.9,235.2c-0.4,3.9-0.4,6.3-0.4,6.3s-19,15.7-51.3-8.3s-61.3-17.4-61.3-17.4s0.3-1.9,1-5
		c2.3-4.7,4.8-6.6,4.8-6.6l103.5,19.9L926.9,235.2z"/>
	<path class="st25" d="M997.3,147.9c-2.2,16.9-2.9,38.1-2.9,38.1c-19,14.9-34-4.1-34-4.1c-18,4.8-26.4,20.6-30.4,34.3
		c-2.1,7.4-3.3,15.1-3.5,22.8c0,0-5,4.1-14.3,5c-8.8,0.7-21.3-1.5-37-13.2c-32.3-24-61.3-17.4-61.3-17.4s5.8-33.1,19-43.1
		c13.2-9.9,23.2-22.4,39.7-60.5s50.5-29,50.5-29s1.7-7.5,32.3,0c7.5,2,14.4,5.6,20.2,10.7C992.1,105.3,1000,126.7,997.3,147.9z"/>
	<path class="st22" d="M966.6,99.5c0,1.1-0.1,2.3-0.3,3.7c-1.7,14.9-3.3,13.2-21.5,16.6c-11.3,2.1-17.2-7.4-20-14.9
		c-1-2.7-1.8-5.5-2.3-8.3l39.7-6.6C962.2,89.9,966.9,88.6,966.6,99.5z"/>
	<path class="st28" d="M930,216.2c-2.1,7.4-3.3,15.1-3.5,22.8c0,0-5,4.1-14.3,5c-0.3-0.5-0.5-1.1-0.6-1.7
		c-1.7-7.5-14.1-20.7-14.1-20.7c-8.3-7.5-9.9-20.7-9.9-20.7l-13.7-40.2l-4.6-3.7c0,0,19-14.9,35.6-2.5
		c16.6,12.4,11.6,38.9,11.6,38.9l3.3,9.1C923.3,205.5,926.8,210.6,930,216.2z"/>
	<path class="st22" d="M871.9,156.2l18.2,43.9c0,0,1.7,13.2,9.9,20.7c0,0,12.4,13.2,14.1,20.7c1.7,7.5,24.8,27.3,24.8,27.3
		s21.5,19.9,23.2,27.3c0,0,19.9,5.8,17.4,17.4c0,0,14.9-14.9,0-29s-34.8-43.1-34.8-43.1s-11.6-30.6-22.4-39.7l-3.3-9.1
		c0,0,5-26.5-11.6-38.9S871.9,156.2,871.9,156.2z"/>
	<path class="st23" d="M882.6,470.1l-21.5,11.6l-6.6-5v-3.3c7.4-0.5,14.7-2.7,21.2-6.4c2-1.1,3.9-2.2,5.4-3.2
		C881.9,467.6,882.6,470.1,882.6,470.1z"/>
	<path class="st23" d="M907.5,121.4l11.6,45.5c0,0-35.6,5.8-43.1,0c-7.5-5.8-21.5-7.5-21.5-7.5s14.9-43.1,23.2-48
		C885.9,106.5,907.5,121.4,907.5,121.4z"/>
	<path class="st25" d="M907.5,119.8l11.6,45.5c0,0-35.6,5.8-43.1,0c-7.5-5.8-21.5-7.5-21.5-7.5s14.9-43.1,23.2-48
		C885.9,104.9,907.5,119.8,907.5,119.8z"/>
	<path class="st23" d="M966.6,98.7c-9.4,13-27.5,15.9-40.5,6.5c-0.5-0.3-0.9-0.7-1.4-1.1c-1-2.7-1.8-5.5-2.3-8.3l39.7-6.6
		C962.2,89.1,966.9,87.8,966.6,98.7z"/>
	<path class="st22" d="M972.1,78.1c0,17.5-13,31.8-29,31.8s-29-14.2-29-31.8c0-0.5,0-1.1,0-1.6c0.4-17.5,13.7-31.4,29.7-31
		C959.8,46,972.5,60.5,972.1,78.1z"/>
	<path class="st28" d="M836.7,169.9c0,0,21.5,5.8,28.2,20.7c6.6,14.9,24.5,17.6,24.5,17.6"/>
	<rect x="868.1" y="497.8" class="st6" width="49.7" height="15.7"/>
	<rect x="868.1" y="497.8" class="st25" width="49.7" height="15.7"/>
	<path class="st27" d="M875.6,468.6c4.4-2.5,8.3-5,8.7-6c0,0,11.2,11.8,21.2,15.5c3.4,1.2,6.6,2.8,9.6,4.8c4,2.5,9.6,5.4,14.7,5.4
		c0,0,11.6,9.9-10.8,11.6c-22.4,1.7-74.5-4.1-74.5-4.1l3.3-20.7l0,0C857.5,475.6,867.2,473.4,875.6,468.6z"/>
	<g>
		<path class="st30" d="M137.5,400.3c-0.4,0.1-0.9,0.2-1.3,0.2c-0.7,0-1.3-0.3-1.5-1c-0.1-0.5,0.1-1.3-0.5-1.5
			c-0.2-0.1-0.4-0.1-0.6-0.1c-1.9,1.7-3.9,3.4-5.8,5.1c-6.7,5.9-15.7,7-21.9,2.8c-7.5-5-8-16.1-1.2-24.1c0.8-0.9,1.6-1.7,2.5-2.5
			c2.7-2.4,5.5-4.8,8.2-7.2c-0.1,0-0.2-0.1-0.3-0.1c-0.3-0.2-0.5-0.4-0.6-0.7c-0.1-0.3-0.1-0.6-0.2-0.8c-0.1-0.3-0.3-0.3-0.6-0.4
			c-0.5-0.2-1-0.6-1.2-1.1c0-0.2-0.1-0.4,0-0.5c-0.1,0-0.2,0.1-0.2,0.1c-0.2,0-0.4,0-0.6,0c-2.7,2.4-5.5,4.8-8.2,7.2
			c-4.4,3.9-7.3,8.5-8.6,13.8c-2.4,9.5,1.2,18.5,9,22.4c8.6,4.3,19.3,2.4,27.6-5c1.8-1.5,3.5-3.1,5.3-4.6
			C136.9,401.5,137.3,400.9,137.5,400.3z"/>
		<path class="st30" d="M109.9,372.1C109.9,372.1,109.9,372.1,109.9,372.1c0.3-0.3,0.8-0.2,0.9,0.2c0.3,0.5,0.4,0.8,1,0.7
			c0.7-0.2,1.2-0.4,1.9-0.1c0.3,0.2,0.6,0.5,0.9,0.3c0.2-0.1,0.3-0.2,0.5-0.3c0.3-5.2,0.5-10.4,0.8-15.6c-1.7-0.1-3.5-0.2-5.2-0.3
			C110.4,362,110.1,367.1,109.9,372.1z"/>
		<path class="st30" d="M146.3,377.9c0.2-0.1,0.4-0.1,0.6-0.1c0.6,0,1,0.3,1.4,0.7c0.2,0.2,0.3,0.3,0.6,0.1c0.2-0.2,0.3-0.4,0.5-0.6
			c0.3-0.5,0.6-0.9,1.1-1.2c0.3-0.2,0.7,0,0.8,0.3c0.1,0.1,0.1,0.2,0.2,0.4c0.4-8.4,0.9-16.9,1.3-25.3c-1.7-0.1-3.5-0.2-5.2-0.3
			C147.2,360.4,146.8,369.2,146.3,377.9z"/>
		<path class="st10" d="M134.6,334.5c0.2,0,0.5,0.1,0.7,0.1c7,0.4,13.9,0.7,20.9,1.1c0.5,0,0.7,0.2,0.8,0.7
			c1.1,3.7,1.2,7.4,0.4,11.2c-3-0.2-5.9-0.3-8.9-0.5c-14-0.7-28-1.5-41.9-2.2c-0.4-4,0.2-7.7,1.7-11.3c0.2-0.5,0.5-0.4,0.8-0.4
			c7,0.4,13.9,0.7,20.9,1.1c0.2,0,0.5,0,0.7,0C132,334.4,133.3,334.5,134.6,334.5z"/>
		<path class="st11" d="M106.7,345c14,0.7,28,1.5,41.9,2.2c3,0.2,5.9,0.3,8.9,0.5c-0.2,1.6-0.7,3-1.3,4.4c-0.1,0.3-0.3,0.4-0.6,0.4
			c-0.9-0.1-1.8-0.1-2.8-0.1c-1.7-0.1-3.5-0.2-5.2-0.3c-0.3,0-0.6-0.1-0.8-0.1c-9.4-0.5-18.8-1-28.2-1.5c-0.2,0-0.5,0-0.7-0.1
			c-2.9-0.2-5.7-0.3-8.6-0.5c-1.8-0.1-1.5,0.4-2-1.8C106.9,347.2,106.7,346.1,106.7,345z"/>
		<path class="st10" d="M109.2,350c2.9,0.2,5.7,0.3,8.6,0.5c-0.1,1.6-0.2,3.3-0.3,4.9c-0.1,1.6-0.5,2.1-1.8,2.3
			c-1.7-0.1-3.5-0.2-5.2-0.3c-1.2-0.4-1.6-0.9-1.5-2.4C109.1,353.3,109.2,351.6,109.2,350z"/>
	</g>
	<path class="st22" d="M139.8,318.9l9.9,19.4l-1.8,3.1c-4.3,3.5-7.3,3.4-7.8-0.3c-1-6.2-5.3-13.5-5.3-13.5L139.8,318.9z"/>
	<path class="st24" d="M930.2,34.7c-0.8,0.6-1.8,0.9-2.7,1c-1,0-1.8-0.8-1.9-1.9c-0.8,1.6-2,2.8-3.5,3.6c-1.5,0.6-3.6-0.4-3.5-2.2
		c-0.4,1.3-1.1,2.4-2.1,3.3c-1,0.9-2.5,0.7-3.2-0.4c0.1,3.8-0.9,7.5-1.3,11.2c-0.4,3.8-0.1,7.8,2.1,10.7c3.2,4.1,9,4.1,14.1,4.2
		c0.8-0.1,1.5,0.1,2.2,0.5c1.7,1.1,1.2,3.9,0.9,6.1c-0.9,8,3.6,15.4,10.7,17.5c1.9,0.6,4,0.4,5.8-0.6c1.6-1.1,2.6-3.1,4.4-3.8
		c2.9-1.2,5.7,1.6,7.2,4.4c1.5,2.8,2.9,6.2,5.8,7.1c3.8,1.2,7.5-2.7,9.6-6.5c5.8-10.7,7.5-23.5,4.5-35.3
		C974.2,33,946.7,25.6,930.2,34.7z"/>
	<g id="Layer_2">
	</g>
</g>
</svg>
